# xmcd
# Track frame offsets:
# 150
# 14429
# 26920
# 41250
# 54351
# 71630
# 85409
# 96945
# 111750
# 125372
# 137630
# 157119
# 170957
# 181744
# 191685
# 202982
# 211778
# 223155
# 236568
# 245386
# 254872
# 264346
# 272829
# 284758
#
# Disc length: 3919 seconds
# Revision: 0
# Processed by: cddbd v1.5PL3 Copyright (c) Steve Scherf et al.
# Submitted via: VisiTrax 2.9.9.202 - For more info visit www.synapsa.com
#
DISCID=710f4d18
DTITLE=Roy Acuff - Roy Acuff Sings American Folk Songs - Hand-Clapping Gospe
DTITLE=l Songs
DYEAR=1900
DGENRE=
TTITLE0=The Letter Edged In Black
TTITLE1=The House Of The Rising Sun
TTITLE2=Budded Roses
TTITLE3=Put My Little Shoes Away
TTITLE4=Mother Was A Lady
TTITLE5=Shut Up In The Mines
TTITLE6=The Great Titanic
TTITLE7=Birmingham Jail
TTITLE8=Red River Valley
TTITLE9=Little Rose Wood Casket
TTITLE10=Give My Love To Nell
TTITLE11=Zeb Turney's Gal
TTITLE12=Somebody Touched Me
TTITLE13=Turn Your Radio On
TTITLE14=Jesus Died For Me
TTITLE15=Wait For The Light To Shine
TTITLE16=Thank God
TTITLE17=Build Me A Cabin In Gloryland
TTITLE18=That Glory Bound Train
TTITLE19=I Saw The Light
TTITLE20=I'll Fly Away From Here
TTITLE21=It's All Right Now
TTITLE22=Traveling The Highway Home
TTITLE23=Glory Is Coming
EXTD=
EXTT0=
EXTT1=
EXTT2=
EXTT3=
EXTT4=
EXTT5=
EXTT6=
EXTT7=
EXTT8=
EXTT9=
EXTT10=
EXTT11=
EXTT12=
EXTT13=
EXTT14=
EXTT15=
EXTT16=
EXTT17=
EXTT18=
EXTT19=
EXTT20=
EXTT21=
EXTT22=
EXTT23=
PLAYORDER=
